# xmcd CD database file
#
# Track frame offsets:
#	150
#	13537
#	26272
#	39450
#	50025
#	62855
#	75955
#	88612
#	103572
#	114870
#	128317
#	143027
#	156377
#	169607
#	183160
#
# Disc length: 2624 seconds
#
# Revision: 1
# Processed by: cddbd v1.5.1PL0 Copyright (c) Steve Scherf et al.
# Submitted via: CDex 1.51
#
DISCID=ab0a3e0f
DTITLE=CHU BERRY(ts) - Chu
DYEAR=1900
DGENRE=Jazz
TTITLE0=Now You're Talking My Language
TTITLE1=Indiana (Back Home Again In Indiana)
TTITLE2=Limehouse Blues
TTITLE3=Chuberry Jam
TTITLE4=Maelstrom
TTITLE5=My Secret Love Affair
TTITLE6=Ebb Tide
TTITLE7=Warmin' Up
TTITLE8=At The Clambake Carnival
TTITLE9=Jive (Page "1" Of The Hepster's Dictionary)
TTITLE10=Topsy Turvy (Hard Times)
TTITLE11=Come On With The "Come On"
TTITLE12=(I Don't Stand) A Ghost Of A Chance (With You)
TTITLE13=Lonesome Nights
TTITLE14=Take The "A" Train
EXTD=
EXTT0=
EXTT1=
EXTT2=
EXTT3=
EXTT4=
EXTT5=
EXTT6=
EXTT7=
EXTT8=
EXTT9=
EXTT10=
EXTT11=
EXTT12=
EXTT13=
EXTT14=
PLAYORDER=
